# xmcd
#
# Track frame offsets: 
#        150
#        11778
#        29003
#        49303
#        62065
#        71887
#        84229
#        98366
#        108988
#        121323
#        145368
#        164930
#        181423
#        194708
#        212743
#        232390
#        252062
#        285039
#        298287
#        316717
#
# Disc length: 4771 seconds
#
# Revision: 0
# Processed by: cddbd v1.5.2PL0 Copyright (c) Steve Scherf et al.
# Submitted via: ExactAudioCopy v1.1
#
DISCID=3412a114
DTITLE=Albert King - Akella Presents - Greatest Bluesmen - vol. 16  CD
DTITLE=2
DYEAR=2017
DGENRE=Blues
TTITLE0=Crosscut Saw
TTITLE1=The Very Thought Of You
TTITLE2=Personal Manager
TTITLE3=Oh, Pretty Woman
TTITLE4=Down Don't Bother Me
TTITLE5=The Hunter
TTITLE6=Killing Floor
TTITLE7=Wrapped Up In Love Again
TTITLE8=Heart Fixing Business
TTITLE9=Love Me Tender
TTITLE10=One Night
TTITLE11=Jailhouse Rock
TTITLE12=Bay Area Blues
TTITLE13=Honky Tonk Woman
TTITLE14=Everybody Wants To Go To Heaven
TTITLE15=For The Love Of A Woman
TTITLE16=I'll Play The Blues For You
TTITLE17=High Cost Of Loving
TTITLE18=I'm Ready
TTITLE19=I Got The Blues
EXTD=
EXTT0=
EXTT1=
EXTT2=
EXTT3=
EXTT4=
EXTT5=
EXTT6=
EXTT7=
EXTT8=
EXTT9=
EXTT10=
EXTT11=
EXTT12=
EXTT13=
EXTT14=
EXTT15=
EXTT16=
EXTT17=
EXTT18=
EXTT19=
PLAYORDER=
